<mxfile host="65bd71144e" pages="2">
    <diagram id="YDHPcrjkJ_hrPR7L1dNF" name="v0">
        <mxGraphModel dx="909" dy="655" grid="1" gridSize="10" guides="1" tooltips="1" connect="1" arrows="1" fold="1" page="1" pageScale="1" pageWidth="827" pageHeight="1169" math="0" shadow="0">
            <root>
                <mxCell id="NjZC5WjNETesjFtiS9zZ-0"/>
                <mxCell id="NjZC5WjNETesjFtiS9zZ-1" parent="NjZC5WjNETesjFtiS9zZ-0"/>
            </root>
        </mxGraphModel>
    </diagram>
</mxfile>